<?xml version="1.0" encoding="utf-8"?>
<!DOCTYPE svg PUBLIC "-//W3C//DTD SVG 1.1//EN" "http://www.w3.org/Graphics/SVG/1.1/DTD/svg11.dtd">
<svg version="1.1" id="Layer_1" xmlns="http://www.w3.org/2000/svg" xmlns:xlink="http://www.w3.org/1999/xlink" x="0px" y="0px"
	 viewBox="0 0 2560 1600" enable-background="new 0 0 2560 1600" xml:space="preserve">
<g id="_x23_0a0b0cff">
	<path fill="#0A0B0C" stroke="#0A0B0C" stroke-width="0.4847" d="M1733.6862,5.1666c12.822,9.875,25.2303,20.3187,38.0524,30.2454
		c0.4136,19.233,0.0516,38.5176,0.672,57.7506c12.3567,9.358,24.2998,19.233,35.6742,29.8318
		c-6.1526,8.0137-12.7704,15.8207-17.682,24.7133c-3.7225,26.8331-3.2572,54.1832-2.1198,81.2231
		c13.4941,9.0477,27.3501,17.5785,40.4823,27.0916c-0.155,3.2055-0.517,9.6165-0.7239,12.822
		c-11.0125,8.2722-30.9691,12.6669-27.7637,30.142c7.083,3.8776,14.1145,7.8586,21.2493,11.7362
		c2.4817,15.3036-5.4803,27.4018-16.8546,36.553c0.4653,44.5667,0.6204,89.1851,1.189,133.7519
		c2.792,1.1891,8.3757,3.5674,11.1676,4.7565c0.3102,5.9457,0.879,11.9431,1.7578,17.837
		c3.5675,0.3619,10.7023,0.9823,14.2697,1.2925c-0.0518-4.6014-0.1033-13.9077-0.155-18.5092
		c8.7375,2.8953,17.3716,6.1008,26.0059,9.358c0.2584,19.5432,0.5686,39.0864,0.6204,58.6295
		c-9.9266,13.3391-19.6982,26.8331-29.108,40.534c4.6533,8.3756,11.0125,16.7513,9.6682,26.9882
		c-0.1552,37.3802,0.2587,74.7604-0.3102,112.1923c-4.6013,4.7565-12.0981,8.8927-10.2368,16.8548
		c-0.2585,44.3598,0.1034,88.7197-0.1035,133.028c10.3403,0.5687,20.6807,1.1891,31.0209,1.7062
		c-2.7917,11.7362,5.1702,15.6656,15.2003,16.9581c-0.9305,13.4941-1.0339,26.9882-2.8435,40.4305
		c-7.7035,16.3377-19.4915,30.3488-29.0046,45.7042c0.0518,44.0496,0.0518,88.151,0,132.2524
		c-22.0248,15.2002-46.8416,29.8835-59.5084,54.4418c-4.8081,12.3049-10.03,27.3501-2.8436,39.7584
		c-3.3606-19.75,7.0315-39.6552,22.542-51.443c19.0779-15.3555,38.621-30.2454,58.4226-44.6702
		c22.8004,14.89,45.9628,29.5216,66.4365,47.6688c22.0249-0.0516,44.0497,0.0516,66.1263-0.1552
		c5.2734,12.7186,13.3906,25.127,13.132,39.4484c0.1553,32.4684-0.1033,64.937-0.0515,97.4055
		c77.4487,0.1552,154.8459,0,232.2949,0.1035c5.4285-31.8481,36.915-43.8947,61.4731-58.3711
		c21.1975,14.9934,53.511,26.316,53.0974,57.3888c17.6304-0.3619,35.2605-0.1552,52.8906-0.5688
		c1.0339,76.2081,0.1035,152.4161,0.4653,228.6241c-47.7722,5.0668-95.5444,10.0302-143.2649,15.0452
		c-7.2898,0.6204-12.7185,5.9457-18.6643,9.5648c-281.4113,10.3921-562.9261,19.233-844.3893,29.108
		c-1.0857-2.9988-3.309-8.9445-4.3947-11.9431c-174.2341,7.4967-348.4683,16.2343-522.7024,22.3867
		c-1.913-2.3782-5.7906-7.1864-7.7036-9.6163c-29.3148,1.7578-58.5261,5.5836-87.8409,6.8246
		c-5.9974-3.1539-11.3743-9.0995-18.871-7.7036c-58.2676-0.1552-116.5353,0.517-174.7512-0.2584
		c-5.1185-9.6166-10.392-19.0779-15.6656-28.5394c-139.4907,0.1035-278.9297,0-418.3687,0.0518
		c3.4123-14.2697,6.2559-28.6427,8.1171-43.1708c51.2879,0.3102,102.5758-0.5686,153.8638,0.4653
		c1.3959-64.3683,0.2068-128.7885,0.6721-193.1569c1.4993-12.9772-8.5825-22.697-14.2696-33.1407
		c18.7159,0.0518,37.3802-0.1033,56.0962,0.3103c0.2068-3.7742,0.6204-11.3228,0.8789-15.0968
		c-2.5851-0.0518-7.7035-0.1035-10.2886-0.1035c3.2572-6.049,6.5661-12.0981,9.8233-18.1471
		c-5.0668-20.991-4.8082-46.0144,12.2533-61.6799c24.1446-21.7665,50.7709-40.6375,75.8461-61.3181
		c25.5406,20.3187,51.4947,40.4305,74.3468,63.748c12.822,11.943,12.4084,30.7106,14.9935,46.7382
		c2.6885-4.7048,5.2219-9.4613,7.5484-14.3214c8.4274-8.0654,17.4234-15.5104,26.2126-23.2656
		c7.4968,9.4613,15.5622,18.4574,23.2657,27.712c-1.1374,20.8875-0.9306,41.7749-0.9306,62.6622
		c44.3599-0.0516,88.8749-2.6885,133.0798,1.7578c28.2807,0.6205,56.5615,0,84.8939,0.2068
		c-0.0516-38.8279-0.0516-77.7074-0.0516-116.5352c-22.6453,5.2736-45.3423,10.392-67.9875,15.6655
		c-1.7579-21.9215,5.4803-46.2212-7.2382-65.8678c-8.5825-16.4928-5.532-35.7773-6.1525-53.6144
		c46.6348-16.0792,93.4247-31.5897,140.1628-47.3586c-5.9974-5.5838-12.0464-11.0125-18.1472-16.3894
		c2.8953-22.4384,19.4398-38.8796,38.3108-49.53c0.0518-7.7552,0.0518-15.4587,0.0518-23.1623
		c2.2748-1.8096,6.8763-5.377,9.1511-7.1348c2.9987-41.6198-8.3756-86.7551,12.8221-125.066
		c15.3553-28.5909,40.0687-51.1328,67.4705-68.0392c40.5857-25.4889,84.015-46.6865,121.8088-76.4666
		c39.9652,24.9719,79.8788,49.9954,119.6373,75.2774c29.3147,20.3704,58.9913,43.1708,76.5699,74.9156
		c15.5621,33.2958,6.7212,71.1412,9.4095,106.5051c13.2357,6.9797,14.0112,20.784,11.5295,33.9162
		c7.4451,9.0478,16.1825,17.1132,22.4901,27.0399c6.1008,16.0792,5.0668,33.761,6.5662,50.7192c31.2794,0,62.5588,0,93.8383-0.0516
		c3.1021,4.0844,6.2557,8.2205,9.4097,12.3048c19.6982-23.1622,45.2389-39.7584,70.7277-55.7859
		c21.301,19.4398,47.5654,33.7611,65.4023,56.8201c14.3214,17.8887,11.2711,41.9299,10.9092,63.2826
		c32.8821,0.3102,65.7643,0.0518,98.6464,0.155c0.3619-41.6714-0.3617-83.3428,0.4137-124.9625
		c-11.8914-9.9267-24.2479-19.1812-36.3978-28.6943c0-9.7198-0.0518-19.3881-0.2069-29.1079
		c11.8915-7.3934,26.1094-7.3934,39.5518-8.9961c57.7506-6.0491,116.225-5.0668,173.7688,2.4816l3.1022-8.2205
		c-5.5839-0.517-11.1676-1.034-16.6997-1.4476c0.1035-4.86,0.3102-14.4764,0.4137-19.2847
		c-14.9935-2.7402-11.116,9.3063-9.0995,19.0261c-38.6211-3.4122-77.449-4.3946-116.1216-2.2231
		c-21.1976,1.3959-43.0675,0.2067-63.2311,8.0137c-0.517-7.9103-1.1891-15.769-1.5509-23.6276
		c0.672,4.498,2.068,13.4424,2.7401,17.8887c8.634-0.0518,16.7512-1.3443,16.6995-11.8397
		c-4.3947-0.1034-13.1837-0.4136-17.5785-0.517c3.5157-2.3267,10.6505-6.8763,14.1663-9.2029
		c2.2233-47.2036,0.517-94.6656,0.7756-141.9724c-10.3403-4.6014-23.2657-11.3227-22.9556-24.5066
		c-0.9307-42.8605,0.7238-85.7211,0.2068-128.5817c-6.0491-6.9797-12.0464-14.0111-17.8887-21.0425
		c0-13.5975-0.3619-27.1951-0.9824-40.7408c-4.136-0.7756-12.4083-2.2749-16.5443-3.0504
		c-0.4655-7.9103-0.9308-15.8207-1.3444-23.6793c8.5825-3.2055,17.2166-6.3593,25.9026-9.4614c0,4.2912,0,12.9254,0,17.2166
		c12.6151-2.2232,9.0994-16.2343,11.1674-25.5923c3.1538-1.2925,9.4097-3.8259,12.5118-5.1184
		c1.2407-46.9967,0.5687-94.0968,0.2584-141.1452c0.1552-6.411,7.0315-9.0478,12.1499-10.7022
		c36.2946-11.6846,76.9319-12.9771,112.9679,0.3102c0.517,2.3783,1.4994,7.1866,1.9646,9.6165
		c6.8762-5.0667,13.9594-10.4954,14.735-19.75c-33.0891-5.1184-66.9017-7.962-100.301-4.1878
		c-14.7866,1.4994-28.9528,6.4627-43.8428,7.0831c-0.5688,2.3265-1.7579,7.0314-2.3267,9.3579
		c-2.2749-3.0504-6.7212-9.2029-8.9443-12.2533c4.3945-4.6531,8.8409-9.3062,13.2872-13.9594
		c-1.3441-10.9608,5.7389-29.5733-12.2533-30.1937c15.7174-11.4777,36.2429-10.7022,54.7003-13.1839
		c31.8481-3.5674,63.4895,3.1021,94.1484,11.0641c2.6368-1.8095,7.807-5.532,10.4437-7.3416
		c-35.5189-10.9608-73.106-16.1309-110.176-12.4601c-18.0955,1.2408-35.7773,5.894-53.8213,7.1348
		c-1.189,1.9646-3.4639,5.894-4.6531,7.8586l-7.1864-6.3593c12.3048-11.1158,24.5065-22.2833,37.1216-32.9855
		c0.2584-25.8508,0.8789-51.7532,0-77.5523c-3.1021-10.7539-11.4777-18.9745-17.2167-28.3324
		c11.788-11.4777,23.1624-23.4208,35.0021-34.8985c0.517-16.1309,0.3619-32.3135,0.6204-48.496
		C1712.0232,27.7602,1722.9323,16.5409,1733.6862,5.1666 M1690.567,120.6161c-5.6354,3.9293-25.8507,6.928-9.6681,16.0275
		c15.3036-3.464,30.0903-9.358,45.8075-10.909c21.7664-3.1538,43.2225,3.8259,63.1792,11.8397
		c1.2926-2.5851,3.9294-7.8069,5.2219-10.392C1763.2076,109.3452,1724.3799,105.7778,1690.567,120.6161 M1718.1239,162.8046
		c-5.1184,19.6983-1.7061,40.9993-2.1198,61.318c-2.7917,10.3403,13.701,15.2002,16.7513,4.8599
		c1.3441-18.9228,0.7238-37.8972,0.4653-56.8717C1735.599,163.6835,1724.3799,155.4113,1718.1239,162.8046 M1754.5219,163.5801
		c-6.3594,18.7677-1.7062,40.534-2.6368,60.4391c-3.6708,11.1675,15.4589,16.4411,16.7513,4.5497
		c1.6544-18.9228,0.9824-38.0006,0.4653-56.9234C1771.4281,163.7869,1759.2267,155.7732,1754.5219,163.5801 M1690.3602,165.9584
		c-2.0164,21.5078-2.4301,43.2225-0.4136,64.7303c2.8435-0.1551,8.479-0.4653,11.3226-0.6204
		c1.1891-19.3364,1.2926-38.8279,0.1552-58.2159C1698.6324,170.4047,1693.1521,167.4577,1690.3602,165.9584 M1780.5277,224.2777
		c-0.8273,6.928,2.8436,12.822,7.3417,17.7336c-5.4803-22.0765-3.5675-44.8252-5.1185-67.2637
		C1777.6842,190.6717,1780.6827,207.7849,1780.5277,224.2777 M1721.95,363.5099c-2.5336,27.4536-0.3619,55.1656-1.0342,82.7224
		c6.928-0.0517,13.9077-0.1034,20.8875-0.1551c-0.4137-26.0576,0.5171-52.1151-0.3102-78.121
		C1742.9407,357.0472,1725.3104,352.6009,1721.95,363.5099 M1758.5028,363.2514c-2.1714,27.5569-0.3102,55.3206-0.8789,82.9293
		c6.928,0,13.856,0,20.8357,0c-0.517-27.6086,1.0857-55.269-0.7239-82.8259
		C1773.8065,355.3927,1762.4839,355.186,1758.5028,363.2514 M1691.1357,378.2965c-0.8271,22.6453,0,45.2906-0.2585,67.8841
		c3.9294,0,11.7362,0,15.6656,0c-0.6722-24.0412,1.4476-48.2892-1.0857-72.227
		C1703.1823,365.0092,1689.0676,369.8175,1691.1357,378.2965 M1790.9197,377.1591c-3.0503,22.7486-0.4652,46.0143-1.2925,68.9698
		c2.3782,0.0517,7.1349,0.1034,9.5131,0.1034c-0.3102-24.4031,0.9823-48.8579-1.1375-73.261
		C1796.245,374.057,1792.6776,376.1251,1790.9197,377.1591 M1711.2477,486.7146c0,4.2395,0,12.6669,0,16.9064
		c-26.0576,5.015-52.0117,13.5458-78.8448,8.8926c-2.5333,8.7893,8.3756,17.2166,16.4928,14.4247
		c67.9357-15.769,139.3356-12.6152,207.1681,2.2748c-0.8273-12.4083,3.2571-29.8318-14.9419-29.0045
		c-0.0518,3.8776-0.155,11.6846-0.2068,15.5622c-13.339-3.7225-26.678-7.3416-40.0687-10.9607c0-3.7742,0-11.426,0-15.2002
		c-4.1877-0.0517-8.4272-0.0517-12.6151-0.0517c0.0518,3.8259,0.1034,11.4777,0.1034,15.2519
		c-20.7323-0.3102-41.4647-0.517-62.1969-0.9306c-0.2068-5.9973-0.4137-11.943-0.6204-17.8887
		C1720.709,486.2493,1716.0042,486.4561,1711.2477,486.7146 M1657.2195,564.5255c0,1.8612,0,5.5837,0,7.4449
		c56.0962-14.7866,115.0876-16.8546,172.2178-6.928c-1.2925,7.3416-2.4299,14.6832-3.5674,22.0766
		c5.5839-8.0654,10.8058-16.3377,15.976-24.7134C1781.0964,549.7905,1717.9688,553.6681,1657.2195,564.5255 M1719.4681,649.7296
		c-1.3442,26.3677-0.1033,52.839-0.517,79.2585c8.7893-0.1035,17.6302-0.2068,26.4196-0.4136
		c-0.879-27.0916,0.9305-54.2866-0.8273-81.3782C1741.1829,633.9606,1719.7267,636.132,1719.4681,649.7296 M1774.4786,646.5757
		c-1.5511,26.7814-0.1035,53.6145-0.5687,80.4476c8.7375,0.0517,17.4751,0.0517,26.2644,0.0517
		c-0.7239-27.8154,1.7061-55.7859-1.2925-83.4463C1794.332,632.2028,1775.7712,634.6328,1774.4786,646.5757 M1683.0187,648.1785
		c-3.1022,26.2126-0.5688,52.7872-1.2926,79.2067c3.5157,0.2068,10.4955,0.6721,14.0111,0.879
		c-0.517-29.7284,6.928-61.9385-5.0668-89.9608C1688.7574,640.7335,1684.9316,645.6968,1683.0187,648.1785 M1816.8738,647.8165
		c-2.585,26.2644-0.3619,52.7357-1.1373,79.1034c3.7742,0.0518,11.2709,0.1551,15.0452,0.2068
		c-2.792-29.6251,6.3075-61.6283-6.0491-89.4954C1822.7679,640.1647,1818.8385,645.2832,1816.8738,647.8165 M1161.2468,815.7432
		c-8.2722,8.0654,4.4463,19.5948,12.2532,12.5118C1180.4797,820.4479,1169.4156,807.3675,1161.2468,815.7432 M958.9387,825.3079
		c-9.1511,8.2723,4.3947,21.3011,12.2533,12.822C977.8615,830.1678,967.211,819.7241,958.9387,825.3079 M1722.6737,886.0572
		c-0.1034,4.0327-0.2585,12.0464-0.3621,16.0275c3.2057-0.4653,9.5648-1.396,12.7704-1.8613
		c-0.1552-3.2572-0.4653-9.7716-0.6205-13.0288C1731.5145,886.9361,1725.6207,886.3674,1722.6737,886.0572 M1794.6938,885.8504
		c0,4.2395-0.1034,12.6669-0.1552,16.8547c3.3607-0.3102,10.1337-0.9823,13.546-1.3442c0-3.6191-0.0518-10.9091-0.0518-14.5799
		C1804.724,886.5742,1798.0546,886.1089,1794.6938,885.8504 M891.6234,944.2214l-0.517,11.2709
		c140.4214-7.6001,280.9978-18.8711,421.6776-10.0301l-1.8094-10.4954C1171.2252,927.832,1031.114,934.6049,891.6234,944.2214
		 M983.0834,991.0113c-8.8926,4.0844-20.4738,5.894-25.0753,15.6656c69.9522,0.9823,139.9561-1.2409,209.9599-1.4993
		c-0.5171-3.1021-1.6028-9.2546-2.1198-12.305c-25.6439-10.2886-52.7872-16.9581-80.1375-20.5255
		C1050.4504,968.0042,1015.8621,979.3785,983.0834,991.0113 M1201.8325,991.3732c-6.1525,2.0164-4.5498,9.3062-5.5321,14.1662
		c42.4987,0,84.9973,1.4476,127.496,1.4994c-0.6204-3.3607-1.913-10.1852-2.5333-13.5458
		c-17.682-11.6329-38.0006-21.1459-59.405-22.0765C1240.5052,972.2437,1220.2899,981.188,1201.8325,991.3732 M863.963,1011.4334
		c4.1878,3.7742,8.4274,7.5485,12.6669,11.3226c19.75-7.1865,40.7925-9.358,61.68-10.6505c0.0516-2.1198,0.2585-6.411,0.3618-8.5307
		c-13.856-4.6015-25.4371-13.9595-39.0345-18.9228C885.3674,989.8222,875.234,1001.8169,863.963,1011.4334 M1963.6028,1208.6748
		c0.1552,14.6832-0.7755,29.4698,0.7755,44.1531c3.5156-0.0518,10.4954-0.1552,13.9595-0.2069
		c-0.3619-14.6315-0.4137-29.3147-0.3619-43.9462C1973.1676,1208.6748,1968.3594,1208.6748,1963.6028,1208.6748
		 M1455.3251,1237.1622c-2.3782,14.6315-1.0341,29.6251-0.4652,44.4116c-16.0793,11.5295-35.6742,27.1951-30.9176,49.6853
		c-1.6028,6.7728-3.0504,13.5458-4.2395,20.422c-5.3252,3.9293-10.7023,7.807-16.0792,11.7363
		c0.1035,4.7047,0.2585,9.4613,0.4137,14.2695c1.6544,1.5511,4.9633,4.6014,6.6178,6.1525
		c2.2749,33.7095,0.6204,67.729,0.8271,101.5419c-2.8953,22.5417-4.7048,45.3422-2.0164,68.0392
		c8.0654-10.4437,2.5333-24.765,4.343-36.8632c5.3252-41.2579,2.2748-82.8776,3.1021-124.3423
		c1.913-9.2029-3.7225-15.8722-10.3921-21.1975c5.4803-6.2042,11.7363-11.6846,18.2507-16.6996
		c1.3959-6.7729,3.2572-13.3907,5.9456-19.8018c-0.2584-7.9104-4.5497-17.4235,1.6029-24.1963
		c13.9594-17.2166,28.5392-34.4332,47.3069-46.6865c22.0248,15.769,48.2374,28.0739,63.7997,51.0294
		c-1.4994,13.5458,0.5686,26.7297,4.86,39.6552c5.2217,3.7742,10.547,7.3932,15.3036,11.8396
		c2.4299,8.2722-8.2723,12.5635-7.3417,20.6807c-2.1199,55.3723,1.3442,110.5895,3.7743,165.8584
		c8.2722-10.03,3.5156-24.2998,4.6013-36.1393c-5.3253-43.9463-3.1019-88.3063-2.8953-132.511
		c8.0138-4.2914,7.5485-13.1323,8.4274-20.8358c-5.7905-4.0327-11.5294-8.1172-17.2683-12.1499
		c-2.8435-12.7703-3.6708-25.8507-4.86-38.7761c-9.0995-15.252-24.765-25.3854-40.1204-33.606
		c4.0845-26.9882-3.2571-56.5615-27.8153-71.6067C1470.2667,1215.4476,1458.9443,1224.1334,1455.3251,1237.1622
		 M1539.6503,1242.1774c-1.1375,14.0627-0.4136,28.1774-0.4136,42.2917c16.441-0.0515,32.9338,0,49.4266,0
		c-0.0516-14.1144,0.7755-28.2808-0.517-42.2917c-2.7402-14.9934-13.5458-26.7297-25.5406-35.3121
		C1553.2478,1217.2572,1542.1836,1227.7009,1539.6503,1242.1774 M1640.0547,1212.3972
		c-0.1035,22.1799-0.0518,44.3082-0.0518,66.4883c3.2572-0.2069,9.875-0.5688,13.1323-0.724
		c-0.2587-21.7662-0.1552-43.5844-0.0518-65.3507C1649.8262,1212.7075,1643.3118,1212.5006,1640.0547,1212.3972
		 M1676.5043,1212.7075c0,21.973,0.0518,43.9462-0.0518,65.9193c3.309-0.0516,9.875-0.2067,13.184-0.3102
		c-0.2069-21.9214-0.1035-43.8428-0.1035-65.816C1686.2758,1212.5524,1679.7615,1212.6558,1676.5043,1212.7075 M1713.0573,1212.6558
		c0.0516,21.9214,0.0516,43.7913,0,65.7126c3.3088,0.1034,9.875,0.3102,13.1838,0.4136c0-22.0765,0.0518-44.1531-0.1034-66.2296
		C1722.8287,1212.604,1716.3145,1212.6558,1713.0573,1212.6558 M1749.6619,1212.8108c0.155,14.7866,0.155,29.5734-0.1034,44.3082
		c3.1538-0.2584,9.4613-0.8789,12.6152-1.1891c0.6721-14.5281,0.6721-29.1079,0.4136-43.6361
		C1759.33,1212.449,1752.8673,1212.7075,1749.6619,1212.8108 M920.8347,1221.9103c-0.5687,22.3351-0.4653,44.7219-0.1035,67.1086
		c3.2573-0.2069,9.8234-0.6721,13.0806-0.9307c-0.2585-21.7146-0.2585-43.3776-0.0518-65.0923
		C930.5546,1222.7375,924.0919,1222.1688,920.8347,1221.9103 M957.1292,1222.324c-0.1551,22.1282-0.3102,44.3082,0.1551,66.488
		c3.2572-0.155,9.7716-0.4652,13.0288-0.6204c-0.2068-21.818-0.1551-43.6361,0-65.4541
		C967.0042,1222.6342,960.4381,1222.4272,957.1292,1222.324 M993.889,1222.2206c-0.2585,22.1283-0.1551,44.2565-0.1034,66.4364
		c3.2572-0.1034,9.875-0.2584,13.1322-0.3618c-0.1034-21.8181-0.0518-43.6879,0-65.5576
		C1003.6606,1222.6342,997.1462,1222.324,993.889,1222.2206 M1030.3903,1222.3756c0.0516,22.0249,0.1034,44.0498-0.0516,66.0747
		c3.3088,0,9.9266,0.0515,13.2355,0.0515c-0.155-21.9731-0.1034-43.9463-0.1034-65.9194
		C1040.2135,1222.5308,1033.6475,1222.4272,1030.3903,1222.3756 M1066.8915,1222.6858c0.1035,21.9215,0.1552,43.7913,0,65.7128
		c3.2056,0.0518,9.72,0.2068,12.9772,0.2584c0.1552-22.1283,0.1034-44.3081,0.1034-66.4882
		C1076.6631,1222.324,1070.1487,1222.5824,1066.8915,1222.6858 M1103.5479,1222.6858c0.2585,21.7664,0.2585,43.5845,0,65.4025
		c3.2572,0.2585,9.7716,0.7238,12.9772,0.9824c0.2585-22.2833,0.2585-44.5668,0-66.7985
		C1113.2678,1222.3756,1106.7534,1222.5824,1103.5479,1222.6858 M1140.0492,1222.8409c0.2584,21.663,0.3619,43.3258-0.1034,65.0405
		c3.2572,0.2584,9.8232,0.879,13.1322,1.1892c0.3619-22.3351,0.4136-44.6702-0.1034-67.0052
		C1149.7174,1222.2722,1143.2546,1222.6342,1140.0492,1222.8409 M1252.7068,1221.7035c0.1034,22.0248,0.0518,44.1014,0.0518,66.2297
		c3.2572,0.0516,9.7198,0.155,12.9253,0.2067c0.1552-22.0765,0.0518-44.1014,0.1552-66.1261
		C1262.53,1221.9103,1255.964,1221.7552,1252.7068,1221.7035 M1289.2081,1222.0654c0.1034,21.9215,0.0518,43.8429,0.1034,65.7643
		c3.2054,0.1035,9.6681,0.2585,12.8737,0.3619c0.1552-22.1801,0.0518-44.3599,0.1552-66.5916
		C1299.0314,1221.7552,1292.517,1221.962,1289.2081,1222.0654 M1325.7611,1222.2722c0.4136,21.818,0.3102,43.5844,0.155,65.4023
		c3.2056,0.2069,9.6166,0.5688,12.8737,0.724c0.3619-22.3352,0.2585-44.6185,0.0518-66.9535
		C1335.5844,1221.6519,1329.0182,1222.0654,1325.7611,1222.2722 M1362.4691,1287.623c3.2056,0.2584,9.5648,0.6721,12.7703,0.8788
		c0.6205-22.5935,0.4137-45.2388,0.3619-67.8324c-2.947,0.5171-8.8409,1.4994-11.7878,2.0164
		C1360.5045,1243.8834,1363.5549,1266.0634,1362.4691,1287.623 M1399.1772,1221.7552c0.0516,21.973,0.1034,43.9979-0.0516,65.9711
		c3.2571,0.1034,9.8232,0.3102,13.1321,0.4136c-0.155-22.1283-0.1034-44.2047-0.0516-66.333
		C1408.9489,1221.8069,1402.4344,1221.7552,1399.1772,1221.7552 M883.7647,1222.4272c0.1035,22.0249,0.1035,44.0498,0.0517,66.1263
		c3.2572,0,9.8233,0.0518,13.0804,0.0518c0.1035-21.9731,0-43.9463,0.2068-65.9196
		C893.7432,1222.6342,887.0736,1222.479,883.7647,1222.4272 M1177.1193,1223.7198c-0.6722,21.6112,0,43.2225-0.1552,64.8855
		c3.2054,0,9.6682-0.0518,12.9254-0.0518c-0.0518-22.3351,0-44.6702,0-67.0052
		C1186.684,1222.0654,1180.3247,1223.1511,1177.1193,1223.7198 M1769.4119,1234.0085c-0.3102,2.3265-0.879,6.9796-1.1375,9.3063
		c60.801-0.2069,121.6019,0.517,182.403-0.3103c1.0342-2.1198,3.1022-6.3593,4.1361-8.5306
		C1893.0303,1233.75,1831.1953,1234.6805,1769.4119,1234.0085 M529.9712,1262.3409c19.5948,1.2407,39.2415,1.2925,58.8363,0.0518
		c-8.1171-7.807-19.8016-4.86-29.8318-5.5839C549.3076,1257.8947,537.3128,1253.8619,529.9712,1262.3409 M358.7874,1264.8226
		c29.8318,5.9457,60.801,1.3959,91.0981,2.7919c26.7814-1.4994,54.2349,3.2571,80.551-2.5851
		C473.2546,1264.0988,415.9693,1264.2538,358.7874,1264.8226 M1896.0806,1334.2059c0.0518,8.3759,0.1034,16.8031,0.0518,25.1788
		c-5.5839,8.3756-14.4247,16.1825-13.0804,27.2466c-0.2585,38.4661,0.1034,76.8802-0.0518,115.3462c-10.6505,0-21.301,0-31.8999,0
		c-0.2067-44.5668,0.3619-89.1852-0.3102-133.7518c-15.0968,0.2584-30.2455,0.2584-45.3422,0.1033
		c-0.1034,40.2755,0.2068,80.5511-0.2069,120.8265c-7.6517,6.1008-15.2518,12.2532-22.9554,18.3024
		c-0.1552,3.8258-0.5171,11.3744-0.6721,15.1484c47.2035-6.4109,94.7172,1.0342,142.0758-0.7755
		c60.0771-2.3782,120.2578-0.7236,180.3867-0.9305c0.1033-14.0629,0.1033-28.0739,0.1033-42.0851
		c4.2395,0.155,12.667,0.517,16.9065,0.6721c0.0518,13.7009,0.0518,27.4535,0.155,41.2062c11.116,0,22.1799-0.1552,33.3474-0.3621
		c0.1553-35.8291-0.0518-71.6064,0.1035-107.3839c-7.6519-4.5498-15.252-9.1511-22.7488-13.8561
		c0.2585-10.1852,0.3621-20.3186,0.5171-30.5038c-9.2029-5.2219-17.4233-13.4943-27.7122-15.8208
		c-8.6858,6.1525-16.1824,13.7526-24.1445,20.7841c0.0518,8.479,0.1035,16.9064,0.3103,25.4371
		c-4.498,4.5497-8.9443,9.1512-13.3906,13.7526c0,27.2985,0,54.6486,0,81.947c-24.5582,0-49.1165-0.1552-73.6747,0.155
		c-0.3103-45.7559-0.1552-91.46-0.1035-137.2159c-5.1702,0.2587-10.2368,0.5171-15.3036,0.8273
		c0.517,45.3424,0,90.7363,0.2585,136.0785c-6.9797,0.0518-13.9077,0.1552-20.7841,0.2584
		c-0.2069-40.2754,0.2068-80.5509-0.2069-120.8264c-4.6013-4.5498-9.3062-8.996-13.3389-14.0111
		c-2.3783-8.8927,0.2068-18.7159-3.2056-27.1951c-6.566-8.1169-14.4764-14.9934-21.7662-22.3866
		C1911.4877,1318.2302,1903.6808,1326.1405,1896.0806,1334.2059 M2244.8074,1316.5242c-0.2585,2.0162-0.8271,5.9973-1.0857,8.0137
		c36.8115-0.5171,73.7263,1.0341,110.5896-0.9307c-1.1892-1.4994-3.5674-4.6014-4.7566-6.1007
		C2314.7078,1315.4901,2279.7061,1317.5581,2244.8074,1316.5242 M2222.8342,1338.4456l-1.7578,8.3756
		c51.7014-0.0516,103.4031,0.3619,155.053-0.2584c-1.0859-2.1715-3.3091-6.6178-4.3948-8.8409
		C2322.1528,1337.67,2272.3643,1336.2224,2222.8342,1338.4456 M369.0244,1357.5234c0.1034,6.8246,0.2068,13.7008,0.3102,20.5773
		c-5.2736,3.6708-10.4437,7.2899-15.7173,10.9607c-0.0517,45.1353-0.6204,90.3225,0.3102,135.4579
		c22.8004-0.6204,45.6525-0.6204,68.4528,0c0.9823-45.0837,0.3102-90.1674,0.3619-135.2511
		c-5.2736-3.8259-10.4954-7.6519-15.7173-11.4777c0.0517-6.8765,0.0517-13.7527,0.1034-20.629
		c-6.411-4.3429-12.7703-8.6342-19.1812-12.9254C381.6395,1348.6307,375.3319,1353.0771,369.0244,1357.5234 M667.8591,1351.5778
		c-16.9064,8.5308-32.3651,20.7839-43.0673,36.5012c-2.43,12.0464-1.0341,24.5066-1.3442,36.7598
		c-12.4084,9.2029-24.7651,18.4058-37.4319,27.2985c-0.0517,33.8645,0.879,67.729,1.7579,101.5935
		c58.1642-0.4137,116.3284-0.155,174.4926-0.155c0.0518-33.3993-0.2585-66.7985,0.2068-100.1976
		c-12.6152-9.8232-25.5922-19.2329-38.2592-28.9529c-0.4653-12.1499,2.0164-24.9202-1.551-36.6564
		c-8.5825-13.339-21.301-23.3691-34.4849-31.8481C681.9737,1352.9221,674.7355,1345.9939,667.8591,1351.5778 M2317.6548,1396.7131
		c-1.0857,22.1284-0.1033,44.36-0.2068,66.5399c-3.7742,0-11.3225,0-15.0452,0c-0.155-18.6125,0.1553-37.2251,0.0518-55.8376
		c1.551-15.9241-10.4438-28.2808-17.113-41.568c-5.1187,8.7892-11.0125,17.2166-14.8386,26.6779
		c-2.1714,23.4208-0.155,47.0485-1.0857,70.521c-5.2734-0.2584-10.4954-0.4653-15.7173-0.6721
		c-2.1714-30.6591,7.8586-64.6787-10.7021-91.822c-8.5305,33.2958-3.8259,67.9359-4.498,101.9038
		c39.4482-0.2068,78.9482-0.9307,118.3965-0.9307c-2.0164-24.6099,0-49.2716-1.2407-73.8298
		c-2.9988-12.8737-11.9431-23.4208-17.9922-34.9501C2331.0457,1374.0162,2321.3257,1383.9946,2317.6548,1396.7131
		 M1649.516,1387.562c-3.6708,7.962-1.0857,17.3201-1.8612,25.799c-5.1185,3.9812-10.2369,7.9104-15.3037,11.8915
		c-0.7238,34.4332-0.1552,68.9181-0.3102,103.4031c8.2722,0,16.6478,0,24.9719,0.0518
		c-0.0518-12.1499-0.0518-24.2998-0.1035-36.4497c2.947-0.1033,8.7893-0.2584,11.7363-0.3619
		c0.1034,12.2534,0.1034,24.5066,0.2067,36.7599c18.5609,0,37.2252-0.0518,55.8378,0.1033
		c0.2584-34.3815,0.1552-68.7113,0.0516-103.0928c-5.2218-4.0327-10.4437-8.0654-15.6138-12.0981
		c0-8.2723,0.0518-16.5444,0.1033-24.7651c-9.3579-9.0477-19.5947-17.1648-30.1418-24.7133
		C1668.6456,1371.121,1657.5297,1377.687,1649.516,1387.562 M491.2985,1397.437c0.2585,40.3271,0.1551,80.6544,0.1551,120.9816
		c3.7742-0.0516,11.2709-0.1552,14.9935-0.2069c-0.2585-43.8945,0.2068-87.7891-0.1552-131.6836
		c-0.5687-6.256,0.0517-19.0779-9.9784-17.2167C489.9542,1377.2734,491.8155,1387.9757,491.2985,1397.437 M2359.0676,1471.6288
		c8.3242-0.2587,16.6997-0.4138,25.0754-0.5171c-1.8613-33.1925,6.8762-69.1249-11.9949-98.9568
		C2350.8472,1401.2113,2367.2366,1438.85,2359.0676,1471.6288 M1170.9667,1384.2014c-10.5471,9.3063,5.7389,24.3514,14.735,14.5281
		C1193.5603,1389.3198,1180.2212,1374.9985,1170.9667,1384.2014 M1216.2056,1383.1674
		c-11.0125,7.8588,2.6367,25.4371,12.5117,16.1309C1238.7474,1392.0084,1226.4424,1375.1537,1216.2056,1383.1674
		 M1253.8959,1392.6804c5.0151,9.6166,22.9038,13.3909,22.8004-1.2926C1275.8174,1376.6013,1257.1014,1381.3579,1253.8959,1392.6804
		 M1304.4083,1383.943c-8.8927,7.9103,2.0164,23.369,12.4083,16.1309C1328.5012,1393.3009,1314.8521,1373.8093,1304.4083,1383.943
		 M1347.9927,1384.9252c-9.8232,10.4954,9.72,24.5582,16.131,11.9432C1371.672,1387.4069,1355.2826,1375.1537,1347.9927,1384.9252
		 M891.675,1513.6621c-0.4653,13.494-0.8273,27.0398-1.0857,40.5856c111.0549-3.5156,222.1097-7.0314,333.2163-10.392
		c-0.4136-12.5634-0.7755-25.0752-0.9307-37.587C1112.4406,1507.8713,1002.0579,1511.3872,891.675,1513.6621z"/>
	<path fill="#0A0B0C" stroke="#0A0B0C" stroke-width="0.4847" d="M504.4823,1171.4496
		c71.6583-17.4751,143.1098-35.7775,214.6648-53.6145c4.3429,10.6505,9.8232,20.7841,14.1662,31.4863
		c1.913,19.2329,0.3102,38.6727,0.7755,58.009c20.5255-5.0667,40.9476-10.4436,61.4214-15.6655
		c0.1551,11.9948,0.1551,23.9895,0.2584,36.036c-16.8546,3.0504-33.6577,6.1523-50.5123,9.0994c0,18.1473,0,36.3462,0.0517,54.5453
		c-50.4607-0.9308-100.9214-1.241-151.3304-0.5171c-0.1034-19.75-1.9647-39.9136,3.7225-59.1466
		c-8.841-12.7703-20.2153-23.4208-30.2971-35.1053c-9.0994,9.6682-19.2847,18.1473-30.4005,25.3337
		C536.3821,1199.8855,518.3901,1186.0294,504.4823,1171.4496z"/>
	<path fill="#0A0B0C" stroke="#0A0B0C" stroke-width="0.4847" d="M1901.9229,1338.8075
		c5.6355-6.2042,11.426-12.2533,17.2683-18.3024c5.8423,5.6871,11.7362,11.3744,17.6302,17.0615
		c-1.7578,16.1309,1.3959,31.5378,15.3036,41.4128c-0.0518,41.1545,0,82.3605,0,123.515c11.4778,0,23.3175,1.0857,34.2782-3.2572
		c28.3325,6.7729,58.0092,1.6545,86.9103,3.1022c-0.0518-28.4359,0.2068-56.8717-0.2068-85.3075
		c4.2913-4.1362,8.5823-8.2723,12.9253-12.3568c0.155-8.1172,0.1035-16.2859,0.7239-24.3513
		c4.136-8.3756,12.8218-13.3907,19.1294-20.0603c7.0315,4.5498,14.0112,9.2029,20.9392,13.9595
		c-0.2585,10.4437-0.2585,20.9391,0,31.4862c7.3933,3.8777,14.6833,7.9104,22.0249,11.9949c0.1035,32.9854,0,65.9711,0.0518,98.9567
		c-5.5322,0.1033-16.4929,0.2584-22.0249,0.3619c0-13.7009,0.0518-27.3502,0.4136-40.9993
		c-9.5129-0.5171-19.0779-0.9308-28.5391-1.3444c-0.207,14.2179-0.2588,28.4359-0.3105,42.7056
		c-104.4886-0.9824-208.874,1.0857-313.311,0.672c7.1348-9.4095,16.286-16.9064,25.5922-24.0413
		c0.7239-39.2932,0.2069-78.6379,0.2587-117.9312c11.4777-0.155,23.0071-0.155,34.4847-0.0518
		c0.1035,44.5151-0.1033,89.03,0.1552,133.5452c14.4766,0,29.0563,0,43.5844-0.5688c-0.5686-38.8794-0.1552-77.7074-0.3618-116.5868
		c-2.0164-12.3051,8.3239-20.7841,12.8219-31.0728C1902.078,1353.8009,1902.1814,1346.3041,1901.9229,1338.8075z"/>
	<path fill="#0A0B0C" stroke="#0A0B0C" stroke-width="0.4847" d="M634.3049,1390.871
		c11.9948-12.5636,25.127-27.6086,42.8088-30.7625c14.9418,6.928,29.4182,17.2683,38.2075,31.4344
		c0.9823,13.0806,0.3619,26.2126,0.5687,39.345c12.2016,8.7375,24.1964,17.682,36.0877,26.833
		c-0.4136,28.9012-0.1551,57.8024-0.2068,86.7035c-51.0294,0-102.1105,0.0518-153.14,0
		c0.3619-28.4359-0.7755-56.8717,0.4136-85.2559c9.6165-11.6328,23.5242-18.871,35.3638-28.0739
		C634.6667,1417.7041,634.7185,1404.2616,634.3049,1390.871z"/>
</g>
</svg>
